<?xml version="1.0" standalone="no"?>
<!DOCTYPE svg PUBLIC "-//W3C//DTD SVG 20010904//EN"
 "http://www.w3.org/TR/2001/REC-SVG-20010904/DTD/svg10.dtd">
<svg version="1.0" xmlns="http://www.w3.org/2000/svg"
 width="373.000000pt" height="270.000000pt" viewBox="0 0 373.000000 270.000000"
 preserveAspectRatio="xMidYMid meet">

<g transform="translate(0.000000,270.000000) scale(0.100000,-0.100000)"
fill="#000000" stroke="none">
<path d="M1769 1726 c-25 -6 -66 -24 -91 -39 -48 -28 -148 -130 -148 -151 0
-7 26 -33 59 -58 58 -46 59 -46 69 -23 19 41 76 98 117 116 61 28 151 25 210
-7 l48 -25 51 51 51 51 -25 20 c-88 70 -225 97 -341 65z"/>
<path d="M1880 1344 l0 -75 103 1 c56 1 105 1 110 1 4 -1 0 -18 -9 -38 -9 -21
-17 -43 -17 -50 0 -7 -3 -11 -6 -10 -9 3 -61 -39 -61 -48 0 -4 6 -2 14 4 16
13 65 -4 67 -23 1 -6 4 3 8 19 3 17 11 28 16 27 6 -2 8 -9 6 -15 -2 -7 -5 -26
-7 -44 -1 -26 1 -30 15 -25 35 13 -12 -29 -58 -52 -70 -34 -151 -50 -228 -43
-56 4 -62 3 -33 -5 55 -16 172 -3 235 25 57 27 125 76 125 91 0 5 -8 2 -17 -5
-14 -12 -16 -12 -8 0 6 11 4 13 -9 8 -10 -4 -15 -3 -11 3 4 6 17 8 31 6 20 -4
28 3 48 37 31 52 56 146 56 208 0 83 10 79 -191 79 l-179 0 0 -76z m193 45
c-6 -6 -39 -9 -82 -7 -54 2 -70 0 -66 -9 2 -7 -2 -13 -10 -13 -18 0 -20 26 -2
33 6 3 48 6 92 6 57 1 76 -2 68 -10z m156 -11 c-1 -48 -12 -142 -16 -131 -2 7
-11 9 -19 6 -10 -4 -14 3 -14 27 0 32 19 34 21 2 1 -9 5 1 8 23 6 40 1 101 -7
77 -2 -6 -8 -10 -13 -6 -17 10 -9 24 15 24 19 0 25 -5 25 -22z m-106 -15 c-7
-2 -19 -2 -25 0 -7 3 -2 5 12 5 14 0 19 -2 13 -5z m71 -2 c3 -5 -3 -11 -14
-14 -13 -3 -20 0 -20 9 0 15 26 19 34 5z m-199 -36 c6 -2 -11 -4 -37 -4 -27
-1 -48 3 -48 7 0 7 62 5 85 -3z m109 -5 c8 -9 4 -10 -16 -5 -18 5 -28 3 -28
-4 0 -16 -27 -14 -33 3 -3 8 -4 16 -2 18 9 8 68 -1 79 -12z m53 8 c10 -17 4
-51 -11 -60 -7 -5 -5 -8 7 -8 9 0 17 -5 17 -11 0 -5 -4 -8 -9 -4 -6 3 -14 -2
-19 -12 -7 -12 -11 -5 -13 30 -3 33 -1 46 7 43 20 -8 25 6 6 20 -9 8 -12 14
-5 14 6 0 15 -6 20 -12z m-43 -44 c6 -15 4 -15 -11 -3 -10 7 -20 15 -22 16 -2
2 3 3 11 3 9 0 19 -7 22 -16z m-3 -51 c-12 -20 -14 -14 -5 12 4 9 9 14 11 11
3 -2 0 -13 -6 -23z m49 -117 c-7 -7 -10 1 -9 25 0 32 1 33 10 10 6 -16 6 -28
-1 -35z m-100 34 c0 -5 -5 -10 -11 -10 -5 0 -7 5 -4 10 3 6 8 10 11 10 2 0 4
-4 4 -10z m125 0 c3 -5 1 -10 -4 -10 -6 0 -11 5 -11 10 0 6 2 10 4 10 3 0 8
-4 11 -10z"/>
<path d="M1640 1248 c0 -12 -5 -15 -17 -11 -15 6 -16 5 -3 -9 8 -9 18 -12 21
-6 3 5 16 -6 28 -24 13 -18 35 -42 50 -52 23 -17 22 -15 -6 15 -17 19 -40 50
-52 69 -13 22 -21 28 -21 18z"/>
<path d="M1531 1175 c0 -5 6 -19 14 -29 8 -11 15 -15 15 -10 0 6 -7 19 -15 30
-8 10 -14 15 -14 9z"/>
<path d="M1760 1120 c8 -5 20 -10 25 -10 6 0 3 5 -5 10 -8 5 -19 10 -25 10 -5
0 -3 -5 5 -10z"/>
<path d="M1570 1111 c0 -4 18 -25 40 -46 22 -21 40 -36 40 -33 0 3 -18 24 -40
46 -22 22 -40 37 -40 33z"/>
<path d="M1660 1025 c0 -5 85 -45 97 -45 4 0 0 5 -10 11 -28 16 -87 40 -87 34z"/>
</g>
</svg>
