<?xml version="1.0" standalone="no"?>
<!DOCTYPE svg PUBLIC "-//W3C//DTD SVG 20010904//EN"
 "http://www.w3.org/TR/2001/REC-SVG-20010904/DTD/svg10.dtd">
<svg version="1.0" xmlns="http://www.w3.org/2000/svg"
 width="252.000000pt" height="270.000000pt" viewBox="0 0 252.000000 270.000000"
 preserveAspectRatio="xMidYMid meet">

<g transform="translate(0.000000,270.000000) scale(0.100000,-0.100000)"
fill="#000000" stroke="none">
<path d="M140 2688 c0 -9 -96 -272 -131 -356 -5 -14 -9 -413 -9 -997 l0 -975
288 -1 c158 -1 296 -2 307 -3 19 -1 20 -9 23 -178 l2 -178 172 0 172 0 181
179 180 180 265 1 265 0 333 333 332 332 0 837 0 838 -1190 0 c-904 0 -1190
-3 -1190 -12z m2180 -865 l0 -648 -207 -207 -208 -208 -321 0 -322 0 -177
-175 c-98 -96 -178 -175 -179 -175 0 0 0 79 2 175 l3 175 -265 0 -266 0 0 855
0 855 970 0 970 0 0 -647z"/>
<path d="M1030 1640 l0 -350 115 0 115 0 0 350 0 350 -115 0 -115 0 0 -350z"/>
<path d="M1670 1640 l0 -350 115 0 115 0 0 350 0 350 -115 0 -115 0 0 -350z"/>
</g>
</svg>
