<?xml version="1.0" standalone="no"?>
<!DOCTYPE svg PUBLIC "-//W3C//DTD SVG 20010904//EN"
 "http://www.w3.org/TR/2001/REC-SVG-20010904/DTD/svg10.dtd">
<svg version="1.0" xmlns="http://www.w3.org/2000/svg"
 width="253.000000pt" height="270.000000pt" viewBox="0 0 253.000000 270.000000"
 preserveAspectRatio="xMidYMid meet">

<g transform="translate(0.000000,270.000000) scale(0.100000,-0.100000)"
fill="#000000" stroke="none">
<path d="M210 2458 c-18 -13 -43 -36 -54 -51 -21 -28 -21 -31 -24 -1045 -3
-1127 -6 -1077 61 -1124 l32 -23 1015 0 1015 0 42 22 c23 13 54 39 70 60 l28
36 0 1016 c0 1007 0 1016 -21 1051 -11 19 -35 45 -54 57 l-33 23 -1022 0
-1022 0 -33 -22z m511 -284 c75 -44 113 -144 89 -232 -16 -63 -82 -126 -148
-141 -161 -39 -300 124 -237 277 48 114 187 159 296 96z m1108 -560 c63 -18
133 -66 165 -112 71 -104 88 -233 84 -662 l-3 -305 -162 -3 -163 -2 0 283 c0
159 -5 309 -11 343 -26 145 -116 213 -244 184 -68 -15 -112 -52 -144 -119
l-26 -56 -3 -317 -3 -318 -165 0 -164 0 0 545 0 545 155 0 155 0 0 -75 0 -75
40 44 c46 50 148 101 230 115 67 12 194 5 259 -15z m-1051 -536 l-3 -543 -160
0 -160 0 -3 543 -2 542 165 0 165 0 -2 -542z"/>
</g>
</svg>
