<?xml version="1.0" standalone="no"?>
<!DOCTYPE svg PUBLIC "-//W3C//DTD SVG 20010904//EN"
 "http://www.w3.org/TR/2001/REC-SVG-20010904/DTD/svg10.dtd">
<svg version="1.0" xmlns="http://www.w3.org/2000/svg"
 width="352.000000pt" height="270.000000pt" viewBox="0 0 352.000000 270.000000"
 preserveAspectRatio="xMidYMid meet">

<g transform="translate(0.000000,270.000000) scale(0.100000,-0.100000)"
fill="#000000" stroke="none">
<path d="M160 1525 l0 -155 150 0 150 0 0 155 0 155 -150 0 -150 0 0 -155z"/>
<path d="M2995 1545 c-19 -18 -25 -35 -25 -70 0 -41 -2 -45 -25 -45 -33 0 -35
-37 -2 -42 21 -3 22 -7 25 -121 l3 -118 27 3 27 3 3 118 3 118 52 -3 52 -3 5
-101 c6 -120 14 -134 76 -134 39 0 44 3 44 23 0 17 -6 22 -26 23 -35 3 -38 7
-42 79 -6 94 1 115 38 110 26 -3 30 0 30 20 0 19 -6 24 -32 27 -31 3 -33 5
-30 41 2 30 -1 37 -15 37 -29 0 -41 -13 -45 -45 -3 -29 -5 -30 -55 -33 l-53
-3 0 40 c0 42 18 61 53 56 12 -2 17 4 17 21 0 21 -4 24 -40 24 -30 0 -47 -7
-65 -25z"/>
<path d="M1342 1510 c-8 -19 -36 -89 -63 -154 -46 -116 -48 -119 -59 -90 -6
16 -32 84 -58 151 l-47 123 -47 0 -48 0 0 -195 0 -195 31 0 31 0 -4 160 c-1
88 0 160 5 160 4 0 7 -5 7 -11 0 -5 28 -78 62 -160 79 -190 82 -190 149 -25
27 65 54 136 61 157 6 22 14 39 17 39 3 0 6 -71 6 -157 l0 -158 28 -3 27 -3 0
198 0 198 -42 0 c-38 0 -42 -3 -56 -35z"/>
<path d="M1516 1535 c-10 -26 -7 -34 13 -45 30 -15 53 -2 49 29 -2 20 -9 27
-29 29 -17 2 -29 -3 -33 -13z"/>
<path d="M1711 1422 c-48 -24 -70 -58 -77 -118 -11 -91 45 -154 136 -154 53 0
75 12 76 40 1 23 3 23 -30 10 -41 -15 -86 -1 -107 34 -24 40 -24 73 1 113 23
38 59 50 106 35 33 -10 34 -9 34 18 0 23 -5 29 -31 34 -49 10 -71 7 -108 -12z"/>
<path d="M2012 1430 c-12 -5 -25 -16 -28 -25 -9 -22 -24 -19 -24 5 0 15 -7 20
-29 20 l-29 0 1 -137 2 -138 27 -3 26 -3 4 94 c3 107 19 137 70 137 24 0 28 4
28 30 0 32 -9 35 -48 20z"/>
<path d="M2164 1429 c-80 -23 -115 -144 -64 -225 34 -55 135 -72 198 -34 86
52 81 208 -8 252 -38 19 -77 21 -126 7z m103 -54 c31 -22 40 -92 18 -138 -19
-41 -63 -53 -106 -31 -32 16 -39 32 -39 90 0 77 69 120 127 79z"/>
<path d="M2462 1433 c-6 -2 -10 -9 -7 -14 4 -5 0 -6 -8 -3 -18 6 -47 -32 -47
-61 0 -32 25 -61 75 -84 35 -16 45 -26 45 -45 0 -36 -68 -45 -107 -13 -10 7
-13 2 -13 -21 0 -34 17 -42 87 -42 55 0 96 34 96 78 0 40 -15 58 -75 88 -77
39 -54 88 32 70 27 -5 30 -3 30 18 0 16 -7 26 -22 30 -27 7 -68 7 -86 -1z"/>
<path d="M2705 1425 c-22 -8 -41 -15 -43 -15 -2 0 -12 -19 -22 -42 -27 -59
-26 -117 3 -159 30 -44 60 -59 126 -59 49 0 57 3 92 39 37 37 39 42 39 103 0
75 -21 111 -76 134 -41 17 -68 17 -119 -1z m110 -60 c20 -19 25 -34 25 -72 -1
-57 -16 -80 -61 -93 -60 -18 -107 37 -95 110 4 19 7 43 8 52 1 9 5 15 8 13 3
-2 12 0 20 6 27 16 70 10 95 -16z"/>
<path d="M1520 1289 l0 -140 28 3 27 3 3 138 3 137 -31 0 -30 0 0 -141z"/>
<path d="M160 1175 l0 -155 150 0 150 0 -2 43 -1 42 -4 -37 -4 -38 -140 0
-139 0 0 145 0 144 118 4 117 3 -122 2 -123 2 0 -155z"/>
<path d="M427 1323 c16 -3 23 -13 26 -36 4 -31 4 -31 5 6 2 34 0 37 -25 36
-23 -1 -24 -2 -6 -6z"/>
</g>
</svg>
